Coordinates
version=1
nRows=14
nColumns=33
inDegrees=yes

Units are S.I. units (second, meters, Newtons, ...)
Angles are in degrees.

endheader
time	ground_thorax_rot_x	ground_thorax_rot_y	ground_thorax_rot_z	ground_thorax_tx	ground_thorax_ty	ground_thorax_tz	clav_prot_r	clav_elev_r	scapula_abduction_r	scapula_elevation_r	scapula_upward_rot_r	scapula_winging_r	shoulder_elv_r	plane_of_elev_r	axial_rot_r	elbow_flexion_r	pro_sup_r	wrist_flex_r	wrist_dev_r	clav_prot_l	clav_elev_l	scapula_abduction_l	scapula_elevation_l	scapula_upward_rot_l	scapula_winging_l	shoulder_elv_l	plane_of_elev_l	axial_rot_l	elbow_flexion_l	pro_sup_l	wrist_flex_l	wrist_dev_l
      1.53000000	    -38.49327101	     -7.31210411	      1.09635394	    -41.21726283	    792.28132938	     -4.72815193	     -2.24814289	    -45.00000000	     45.00000000	    -45.00000000	     16.94825003	  -3708.97087363	  -1737.43959969	     19.46550968	   -179.99999979	   1444.06104261	    -83.50192289	     15.54130542	     10.00787568	     17.98344807	     40.66845429	    -45.00000000	    -41.24477892	    -33.42707928	   2598.75952731	   -293.26988295	     24.04648166	    -25.44210042	   1804.93354673	     18.44653772	     10.95171847	    -18.40466701
      1.54000000	    -38.61900387	     -7.64933540	      1.44889092	    -46.57230998	    792.30721458	     -4.97382497	     -1.91494544	    -45.00000000	     45.00000000	    -45.00000000	     15.91464629	  -3709.46905866	  -1737.20227747	     19.66173503	   -179.99999979	   1444.18423039	    -83.37459748	     15.53793998	      9.97352313	     18.39487197	     40.54187726	    -45.00000000	    -41.49979500	    -34.58659307	   2598.91079753	   -293.32215780	     23.92430343	    -26.14679175	   1805.07655251	     18.58128233	     10.81011083	    -18.41512412
      1.55000000	    -38.73556438	     -7.81453866	      1.61793574	    -52.07673874	    792.36889828	     -5.24027149	     -1.59571126	    -45.00000000	     45.00000000	    -45.00000000	     15.10617590	  -3709.99624598	  -1736.97400600	     19.86643276	   -179.99999979	   1444.26973710	    -83.41144322	     15.56799422	      9.94331147	     18.65342358	     40.54931771	    -45.00000000	    -41.65467031	    -35.43134288	   2599.06366810	   -293.30467374	     23.71814088	    -26.91062877	   1805.21944028	     18.77623132	     10.69029848	    -18.45433084
      1.56000000	    -38.92469936	     -8.12647444	      1.88400446	    -57.70953836	    792.47530145	     -5.52658846	     -1.13538552	    -45.00000000	     45.00000000	    -45.00000000	     13.96518026	  -3710.04840169	  -1736.64502177	     19.61579954	   -179.99999979	   1444.23378190	    -83.45218518	     15.64306606	      9.85388438	     18.83294579	     40.54494945	    -45.00000000	    -42.07786034	    -36.97317604	   2599.07026925	   -293.33031294	     23.81083772	    -26.89011659	   1805.23922453	     18.87152497	     10.78043768	    -18.53362673
      1.57000000	    -39.09339687	     -8.66875003	      2.34745221	    -63.43173281	    792.62629395	     -5.84781342	     -0.50827064	    -45.00000000	     45.00000000	    -45.00000000	     12.63946231	  -3710.15399420	  -1736.28092349	     19.42302666	   -179.99999979	   1444.26683686	    -83.37621775	     15.77525557	      9.78583089	     18.94734649	     40.43006026	    -44.64708231	    -42.51916782	    -38.59973905	   2598.97845758	   -293.37064058	     24.06769096	    -26.33194713	   1805.22238389	     18.95232872	     10.89229572	    -18.61718605
      1.58000000	    -39.24695994	     -9.52317230	      3.11784950	    -69.23138810	    792.83391198	     -6.19472818	      0.18340578	    -45.00000000	     45.00000000	    -45.00000000	     10.90901958	  -3710.37846230	  -1735.99757956	     19.34635619	   -179.99999979	   1444.34396220	    -83.06662424	     15.79985229	      9.76086323	     18.68132711	     40.41636670	    -43.72129887	    -43.04242237	    -40.18326765	   2598.41805453	   -293.01147684	     24.06461598	    -26.07862162	   1805.31288348	     19.17966747	     10.96117092	    -18.73221567
      1.59000000	    -39.40185276	    -10.27630771	      3.78118797	    -75.09728616	    793.10799317	     -6.55968776	      0.78220984	    -45.00000000	     45.00000000	    -45.00000000	      9.10634850	  -3710.60903656	  -1735.81300075	     19.34942444	   -179.99999979	   1444.34497440	    -82.48093673	     15.83079560	      9.71056221	     18.69218493	     40.37065110	    -42.88868004	    -43.52603121	    -41.63493053	   2598.11988968	   -292.81736794	     24.10627507	    -26.71778116	   1805.49515159	     19.55716421	     10.94712449	    -18.80793002
      1.60000000	    -39.51482528	    -11.15592837	      4.57563041	    -81.04055457	    793.46638542	     -6.91868325	      1.56785149	    -45.00000000	     45.00000000	    -45.00000000	      7.24141729	  -3710.90989237	  -1735.61333457	     19.38753332	   -179.99999979	   1444.36720085	    -81.61268214	     15.94191402	      9.68822641	     18.29603591	     40.17843449	    -42.08434194	    -44.01348044	    -43.21910701	   2597.76088624	   -292.65921725	     24.09253695	    -26.62081679	   1805.60841301	     19.83046009	     10.95652999	    -18.90179077
      1.61000000	    -39.67154975	    -11.81753008	      5.09266929	    -87.03656123	    793.91399431	     -7.26906230	      2.05286073	    -45.00000000	     45.00000000	    -45.00000000	      5.60610872	  -3711.19184853	  -1735.54011626	     19.42539993	   -179.99999979	   1444.37353267	    -80.51772353	     16.06985142	      9.66194046	     18.32602909	     40.14333362	    -41.30137286	    -44.47625874	    -44.47222349	   2597.48812805	   -292.36463757	     24.03066074	    -27.29599712	   1805.75893353	     20.28119872	     10.98828715	    -19.00972555
      1.62000000	    -39.80304571	    -12.10326830	      5.63276881	    -93.06632430	    794.45699263	     -7.60843371	      2.61065934	    -45.00000000	     43.90967734	    -45.00000000	      3.44892532	  -3711.01043181	  -1735.46497656	     19.56627610	   -179.99999979	   1444.45523496	    -79.06449149	     16.13859506	      9.67071300	     18.11361098	     40.01708066	    -40.72867494	    -44.92118298	    -45.00000000	   2597.06344262	   -292.29039591	     23.72818250	    -27.38124824	   1805.78343889	     20.64531960	     11.32791747	    -19.22302354
      1.63000000	    -39.82287956	    -11.95671407	      5.34502233	    -99.10202199	    795.10216931	     -7.93563469	      2.21159386	    -45.00000000	     45.00000000	    -45.00000000	      5.79993705	  -3712.26705187	  -1734.48702921	     19.33899049	   -179.99999979	   1444.76607138	    -78.45262894	     15.78784599	      9.86203563	     17.49158489	     39.97976083	    -40.63486263	    -44.38508959	    -43.14709073	   2598.77228982	   -293.29473503	     22.88249239	    -33.97980193	   1806.26261775	     22.03956744	      9.90119344	    -19.00327144
      1.64000000	    -39.95807418	    -13.21286654	      7.14809193	   -105.12317570	    795.86114384	     -8.24967409	      2.92391008	    -45.00000000	     40.79072677	    -45.00000000	     -3.18735747	  -3709.16315853	  -1735.21348198	     19.48185418	   -179.99999979	   1444.14488378	    -76.10674960	     16.34164978	      9.52118538	     17.26805893	     39.67618942	    -39.47685709	    -45.00000000	    -45.00000000	   2597.72139919	   -292.60580690	     22.88914012	    -29.77684942	   1805.89561786	     21.67176393	     11.36754462	    -19.50856727
      1.65000000	    -39.97888730	    -13.64318748	      7.76321469	   -111.09903259	    796.74413757	     -8.55018601	      3.48037229	    -45.00000000	     39.46652471	    -45.00000000	     -6.48141937	  -3708.77354907	  -1735.25365117	     20.08212738	   -179.99999979	   1444.18254421	    -74.93848783	     16.50907881	      9.52110907	     17.50366029	     39.31937353	    -38.52528750	    -45.00000000	    -45.00000000	   2597.65609587	   -292.06255730	     22.25599101	    -32.29547744	   1806.25405833	     22.41866105	     11.41433028	    -19.66793156
      1.66000000	    -40.13205034	    -14.01197863	      8.46812135	   -117.00969511	    797.76623798	     -8.83550595	      3.66161207	    -45.00000000	     37.83989089	    -45.00000000	     -9.82316129	  -3707.88627997	  -1735.06281626	     20.13730053	   -179.99999979	   1444.09197131	    -73.66058526	     16.79136290	      9.39640316	     17.07115348	     39.31448191	    -38.17378805	    -45.00000000	    -45.00000000	   2598.15497004	   -292.11933180	     21.76664929	    -34.02599976	   1806.35908852	     23.06286176	     11.42516641	    -19.82553000
